<mxfile host="app.diagrams.net" modified="2023-08-18T08:05:38.653Z" agent="Mozilla/5.0 (Windows NT 10.0; Win64; x64) AppleWebKit/537.36 (KHTML, like Gecko) Chrome/115.0.0.0 Safari/537.36" etag="3XIMAroRFleEn7Z0ZxY5" version="21.6.8" type="github">
  <diagram id="prtHgNgQTEPvFCAcTncT" name="Page-1">
    <mxGraphModel dx="1195" dy="690" grid="0" gridSize="10" guides="1" tooltips="1" connect="1" arrows="1" fold="1" page="1" pageScale="1" pageWidth="4681" pageHeight="3300" background="#000000" math="0" shadow="0">
      <root>
        <mxCell id="0" />
        <mxCell id="1" parent="0" />
        <mxCell id="dNxyNK7c78bLwvsdeMH5-19" value="&lt;font color=&quot;#000000&quot;&gt;Lanes&lt;/font&gt;" style="swimlane;html=1;childLayout=stackLayout;resizeParent=1;resizeParentMax=0;horizontal=0;startSize=20;horizontalStack=0;fillColor=#1ba1e2;fontColor=#ffffff;strokeColor=#006EAF;" parent="1" vertex="1">
          <mxGeometry x="100" y="120" width="1030" height="500" as="geometry">
            <mxRectangle x="120" y="120" width="40" height="70" as="alternateBounds" />
          </mxGeometry>
        </mxCell>
        <mxCell id="dNxyNK7c78bLwvsdeMH5-20" value="&lt;font color=&quot;#000000&quot; style=&quot;font-size: 12px;&quot;&gt;Employees&lt;/font&gt;" style="swimlane;html=1;startSize=20;horizontal=0;fillColor=#1ba1e2;strokeColor=#006EAF;fontColor=#ffffff;fontSize=8;" parent="dNxyNK7c78bLwvsdeMH5-19" vertex="1">
          <mxGeometry x="20" width="1010" height="140" as="geometry" />
        </mxCell>
        <mxCell id="KpXBLpW0I7ml58KqA7K6-15" value="" style="endArrow=classic;html=1;rounded=0;strokeColor=#FFFFFF;" edge="1" parent="dNxyNK7c78bLwvsdeMH5-20">
          <mxGeometry width="50" height="50" relative="1" as="geometry">
            <mxPoint x="79.74" y="180" as="sourcePoint" />
            <mxPoint x="79.74" y="100" as="targetPoint" />
            <Array as="points" />
          </mxGeometry>
        </mxCell>
        <mxCell id="KpXBLpW0I7ml58KqA7K6-16" value="&lt;font style=&quot;font-size: 8px;&quot;&gt;2.&amp;nbsp;Receive Meal Coupon: Employees collect their meal coupon from HR representatives at the start of their shift.&lt;/font&gt;" style="rounded=1;whiteSpace=wrap;html=1;absoluteArcSize=1;arcSize=14;strokeWidth=2;align=center;verticalAlign=top;fillColor=#66B2FF;" vertex="1" parent="dNxyNK7c78bLwvsdeMH5-20">
          <mxGeometry x="30" y="10" width="100" height="90" as="geometry" />
        </mxCell>
        <mxCell id="KpXBLpW0I7ml58KqA7K6-17" value="" style="endArrow=classic;html=1;rounded=0;strokeColor=#FFFFFF;" edge="1" parent="dNxyNK7c78bLwvsdeMH5-20">
          <mxGeometry width="50" height="50" relative="1" as="geometry">
            <mxPoint x="130" y="54.74000000000001" as="sourcePoint" />
            <mxPoint x="200" y="54.74000000000001" as="targetPoint" />
          </mxGeometry>
        </mxCell>
        <mxCell id="KpXBLpW0I7ml58KqA7K6-18" value="&lt;font style=&quot;font-size: 9px;&quot;&gt;3. Work: Employees carry out their respective duties during their respective shift&lt;/font&gt;" style="rounded=1;whiteSpace=wrap;html=1;absoluteArcSize=1;arcSize=14;strokeWidth=2;align=center;verticalAlign=top;fillColor=#66B2FF;" vertex="1" parent="dNxyNK7c78bLwvsdeMH5-20">
          <mxGeometry x="200" y="20" width="100" height="70" as="geometry" />
        </mxCell>
        <mxCell id="KpXBLpW0I7ml58KqA7K6-23" value="" style="edgeStyle=elbowEdgeStyle;elbow=horizontal;endArrow=classic;html=1;curved=0;rounded=0;endSize=8;startSize=8;strokeColor=#FFFFFF;" edge="1" parent="dNxyNK7c78bLwvsdeMH5-20" source="KpXBLpW0I7ml58KqA7K6-22">
          <mxGeometry width="50" height="50" relative="1" as="geometry">
            <mxPoint x="240" y="405" as="sourcePoint" />
            <mxPoint x="390" y="50" as="targetPoint" />
            <Array as="points">
              <mxPoint x="310" y="230" />
            </Array>
          </mxGeometry>
        </mxCell>
        <mxCell id="KpXBLpW0I7ml58KqA7K6-25" value="&lt;font style=&quot;font-size: 9px;&quot;&gt;5.&amp;nbsp;Head to Canteen: When it&#39;s their designated break time, employees head to the canteen.&lt;/font&gt;" style="rounded=1;whiteSpace=wrap;html=1;absoluteArcSize=1;arcSize=14;strokeWidth=2;align=center;verticalAlign=top;fillColor=#66B2FF;" vertex="1" parent="dNxyNK7c78bLwvsdeMH5-20">
          <mxGeometry x="390" y="20" width="100" height="90" as="geometry" />
        </mxCell>
        <mxCell id="dNxyNK7c78bLwvsdeMH5-21" value="&lt;font color=&quot;#000000&quot;&gt;HR Representatives&lt;/font&gt;" style="swimlane;html=1;startSize=20;horizontal=0;fontSize=12;fillColor=#1ba1e2;fontColor=#ffffff;strokeColor=#006EAF;" parent="dNxyNK7c78bLwvsdeMH5-19" vertex="1">
          <mxGeometry x="20" y="140" width="1010" height="210" as="geometry" />
        </mxCell>
        <mxCell id="KpXBLpW0I7ml58KqA7K6-2" value="Start" style="strokeWidth=2;html=1;shape=mxgraph.flowchart.terminator;whiteSpace=wrap;fillStyle=solid;fillColor=#66B2FF;" vertex="1" parent="dNxyNK7c78bLwvsdeMH5-21">
          <mxGeometry x="60" y="170" width="60" height="30" as="geometry" />
        </mxCell>
        <mxCell id="KpXBLpW0I7ml58KqA7K6-12" value="" style="edgeStyle=elbowEdgeStyle;elbow=vertical;endArrow=classic;html=1;curved=0;rounded=0;endSize=8;startSize=8;strokeColor=#FFFFFF;" edge="1" parent="dNxyNK7c78bLwvsdeMH5-21">
          <mxGeometry width="50" height="50" relative="1" as="geometry">
            <mxPoint x="90" y="170" as="sourcePoint" />
            <mxPoint x="70" y="120" as="targetPoint" />
            <Array as="points">
              <mxPoint x="70" y="145" />
            </Array>
          </mxGeometry>
        </mxCell>
        <mxCell id="KpXBLpW0I7ml58KqA7K6-13" value="&lt;font style=&quot;font-size: 8px;&quot;&gt;1. Distribute Meal Coupons: At the beginning of each shift, HR representatives are stationed in the cafeteria to hand out meal coupons to employees&lt;/font&gt;" style="rounded=1;whiteSpace=wrap;html=1;absoluteArcSize=1;arcSize=14;strokeWidth=2;align=center;horizontal=1;verticalAlign=top;fontSize=8;fillColor=#66B2FF;" vertex="1" parent="dNxyNK7c78bLwvsdeMH5-21">
          <mxGeometry x="30" y="40" width="100" height="80" as="geometry" />
        </mxCell>
        <mxCell id="KpXBLpW0I7ml58KqA7K6-21" value="" style="edgeStyle=elbowEdgeStyle;elbow=horizontal;endArrow=classic;html=1;curved=0;rounded=0;endSize=8;startSize=8;strokeColor=#FFFFFF;exitX=0.002;exitY=0.832;exitDx=0;exitDy=0;exitPerimeter=0;" edge="1" parent="dNxyNK7c78bLwvsdeMH5-21" source="KpXBLpW0I7ml58KqA7K6-18">
          <mxGeometry width="50" height="50" relative="1" as="geometry">
            <mxPoint x="290" y="-50" as="sourcePoint" />
            <mxPoint x="160" y="240" as="targetPoint" />
          </mxGeometry>
        </mxCell>
        <mxCell id="KpXBLpW0I7ml58KqA7K6-28" value="" style="edgeStyle=segmentEdgeStyle;endArrow=classic;html=1;curved=0;rounded=0;endSize=8;startSize=8;strokeColor=#FFFFFF;" edge="1" parent="dNxyNK7c78bLwvsdeMH5-21">
          <mxGeometry width="50" height="50" relative="1" as="geometry">
            <mxPoint x="420" y="-30" as="sourcePoint" />
            <mxPoint x="360" y="70" as="targetPoint" />
            <Array as="points">
              <mxPoint x="360" y="40" />
              <mxPoint x="410" y="40" />
            </Array>
          </mxGeometry>
        </mxCell>
        <mxCell id="KpXBLpW0I7ml58KqA7K6-29" value="&lt;font style=&quot;font-size: 9px;&quot;&gt;6. Set Up Meal Distribution Point: The canteen staff sets up counters or points where employees can exchange their coupons for food.&lt;/font&gt;" style="rounded=1;whiteSpace=wrap;html=1;absoluteArcSize=1;arcSize=14;strokeWidth=2;align=center;verticalAlign=top;fillColor=#66B2FF;" vertex="1" parent="dNxyNK7c78bLwvsdeMH5-21">
          <mxGeometry x="320" y="70" width="100" height="110" as="geometry" />
        </mxCell>
        <mxCell id="dNxyNK7c78bLwvsdeMH5-22" value="&lt;font color=&quot;#000000&quot;&gt;Canteen Staff&lt;/font&gt;" style="swimlane;html=1;startSize=20;horizontal=0;fillColor=#1ba1e2;fontColor=#ffffff;strokeColor=#006EAF;" parent="dNxyNK7c78bLwvsdeMH5-19" vertex="1">
          <mxGeometry x="20" y="350" width="1010" height="150" as="geometry" />
        </mxCell>
        <mxCell id="KpXBLpW0I7ml58KqA7K6-3" value="End" style="strokeWidth=2;html=1;shape=mxgraph.flowchart.terminator;whiteSpace=wrap;fillColor=#66B2FF;" vertex="1" parent="dNxyNK7c78bLwvsdeMH5-22">
          <mxGeometry x="460" y="50" width="70" height="30" as="geometry" />
        </mxCell>
        <mxCell id="KpXBLpW0I7ml58KqA7K6-22" value="&lt;font style=&quot;font-size: 8px;&quot;&gt;4. Prepare Food: Before the designated break times, the canteen staff prepares meals, possibly coordinating with the outsourced catering vendors.&lt;/font&gt;" style="rounded=1;whiteSpace=wrap;html=1;absoluteArcSize=1;arcSize=14;strokeWidth=2;align=center;verticalAlign=top;fillColor=#66B2FF;" vertex="1" parent="dNxyNK7c78bLwvsdeMH5-22">
          <mxGeometry x="60" y="10" width="100" height="120" as="geometry" />
        </mxCell>
      </root>
    </mxGraphModel>
  </diagram>
</mxfile>
